<?xml version="1.0" encoding="UTF-8"?>
<svg width="54px" height="54px" viewBox="0 0 54 54" version="1.1" xmlns="http://www.w3.org/2000/svg" xmlns:xlink="http://www.w3.org/1999/xlink">
    <!-- Generator: Sketch 52.6 (67491) - http://www.bohemiancoding.com/sketch -->
    <title>i_illustration_search_nothing</title>
    <desc>Created with Sketch.</desc>
    <g id="页面-1" stroke="none" stroke-width="1" fill="none" fill-rule="evenodd">
        <g id="画板" transform="translate(-63.000000, -699.000000)">
            <g id="i_illustration_search_nothing" transform="translate(63.000000, 699.000000)">
                <polygon id="bg" opacity="0.5" points="0 0 54 0 54 54 0 54"></polygon>
                <g id="Group-Copy-2" transform="translate(4.000000, 2.000000)">
                    <g id="iconfont-chuangyixiangfa-copy-5" transform="translate(23.334770, 14.269278) rotate(9.000000) translate(-23.334770, -14.269278) translate(2.334770, 3.769278)" fill="#929292">
                        <path d="M32.0198219,5.02838243 L32.8120766,3.87165517 C33.1886099,3.3177536 33.9419826,3.17172519 34.4961514,3.54430818 L34.6100937,3.61983698 C35.1758503,3.99720445 35.3247234,4.76668444 34.9436823,5.32821916 L34.1514276,6.48494642 C33.7748943,7.03884799 33.0215216,7.1848764 32.4673528,6.81229341 L32.3534105,6.73676461 C31.7836991,6.35912059 31.6345495,5.59359546 32.0198219,5.02838243 Z M23.9861405,0.17302366 L24.1166484,0.182149668 C24.7929171,0.229438979 25.3041921,0.817602838 25.2569021,1.49388201 L25.1612158,2.86225976 C25.1139257,3.53853894 24.5257698,4.0498231 23.8495012,4.00253379 L23.7189932,3.99340778 C23.0427245,3.94611847 22.5314495,3.35795461 22.5787395,2.68167543 L22.6744258,1.31329768 C22.7217159,0.637018508 23.3098718,0.125734349 23.9861405,0.17302366 Z M41.188775,14.343722 L39.926259,14.9509211 C39.3177203,15.2421996 38.5840929,14.99219 38.2846341,14.3870443 L38.2427076,14.3046288 C37.9361688,13.6870654 38.1949154,12.9421148 38.8158716,12.6437562 L40.0783876,12.0365571 C40.6869263,11.7452786 41.4205537,11.9952882 41.7200125,12.6004339 L41.761939,12.6828494 C42.0684778,13.3004128 41.8097312,14.0453634 41.188775,14.343722 Z" id="Shape"></path>
                        <path d="M7.82139551,8.91404177 L6.74099417,8.02049915 C6.22637123,7.59184142 5.46193197,7.65912758 5.03192854,8.17002694 L4.94321875,8.27403664 C4.50339518,8.79272918 4.57238659,9.57343581 5.09344677,10.0081885 L6.17384812,10.9017311 C6.68847106,11.3303888 7.45291032,11.2631027 7.88291375,10.7522033 L7.97162353,10.6481936 C8.41517246,10.1281451 8.34753699,9.35116392 7.82139551,8.91404177 Z M14.2055475,2.03238864 L14.0826107,2.077134 C13.4455742,2.30899631 13.1162251,3.01530219 13.348091,3.65234855 L13.8172466,4.94134295 C14.0491125,5.57838932 14.7554133,5.90774945 15.3924497,5.67588714 L15.5153866,5.63114179 C16.152423,5.39927948 16.4817722,4.6929736 16.2499063,4.05592723 L15.7807507,2.76693283 C15.5488848,2.12988647 14.842584,1.80052633 14.2055475,2.03238864 Z M1.57528768,20.3958269 L2.9562627,20.6315075 C3.62151494,20.7437664 4.25781082,20.3012267 4.3788684,19.6369812 L4.3964539,19.5462018 C4.52089437,18.8680683 4.06683501,18.223296 3.38769481,18.107654 L2.00671979,17.8719734 C1.34146755,17.7597145 0.705171668,18.2022542 0.584114088,18.8664997 L0.566528595,18.9572791 C0.442088119,19.6354126 0.896147485,20.2801849 1.57528768,20.3958269 Z" id="Shape"></path>
                    </g>
                    <path d="M5.96833408,26.2548248 C5.43353793,26.1140889 5,26.4509254 5,26.9947712 L5,44.0052288 C5,44.5546258 5.4325403,45.1138264 5.96833408,45.2548248 L23.0316659,49.7451752 C23.5664621,49.8859111 24,49.5490746 24,49.0052288 L24,31 L5.96833408,26.2548248 Z" id="Path-2-Copy-8" stroke="#929292" stroke-width="1.5"></path>
                    <path d="M41,31 L24.9627022,26.2831477 C24.4310164,26.1267695 24,26.4509254 24,26.9947712 L24,44.0052288 C24,44.5546258 24.4202271,45.1235962 24.9627022,45.2831477 L41,50" id="Path-2-Copy-9" stroke="#929292" stroke-width="1.5" stroke-linecap="round" transform="translate(32.500000, 38.121888) scale(-1, 1) translate(-32.500000, -38.121888) "></path>
                    <path d="M5.47512449,26.2651149 L21.0401263,21.3058326 C21.5702499,21.1369259 22.4388192,21.1249565 22.968064,21.2756623 L40.4898966,26.2651149" id="Path-3-Copy-4" stroke="#929292" stroke-width="1.5" stroke-linecap="round"></path>
                    <rect id="Rectangle-2" fill="#929292" x="21.5" y="21" width="1.4" height="9"></rect>
                </g>
            </g>
        </g>
    </g>
</svg>