<?xml version="1.0" encoding="UTF-8"?>
<svg width="17px" height="20px" viewBox="0 0 17 20" version="1.1" xmlns="http://www.w3.org/2000/svg" xmlns:xlink="http://www.w3.org/1999/xlink">
    <!-- Generator: Sketch 52.6 (67491) - http://www.bohemiancoding.com/sketch -->
    <title>shenghuo-2</title>
    <desc>Created with Sketch.</desc>
    <defs>
        <rect id="path-1" x="0" y="30" width="375" height="50"></rect>
        <filter x="-2.8%" y="-15.0%" width="104.0%" height="130.0%" filterUnits="objectBoundingBox" id="filter-2">
            <feMorphology radius="0.5" operator="dilate" in="SourceAlpha" result="shadowSpreadOuter1"></feMorphology>
            <feOffset dx="-3" dy="0" in="shadowSpreadOuter1" result="shadowOffsetOuter1"></feOffset>
            <feGaussianBlur stdDeviation="1.5" in="shadowOffsetOuter1" result="shadowBlurOuter1"></feGaussianBlur>
            <feColorMatrix values="0 0 0 0 0.91372549   0 0 0 0 0.91372549   0 0 0 0 0.91372549  0 0 0 1 0" type="matrix" in="shadowBlurOuter1"></feColorMatrix>
        </filter>
    </defs>
    <g id="页面-1" stroke="none" stroke-width="1" fill="none" fill-rule="evenodd">
        <g id="首页" transform="translate(-253.000000, -624.000000)">
            <rect fill="#F6F6F6" x="0" y="0" width="375" height="667"></rect>
            <rect id="矩形" fill="#FFFFFF" fill-rule="nonzero" x="0" y="0" width="375" height="677"></rect>
            <g id="分组-10" transform="translate(18.000000, 560.000000)" fill="#666666" font-family="PingFangSC-Regular, PingFang SC" font-size="12" font-weight="normal">
                <g id="热门活动">
                    <text id="最低3折起">
                        <tspan x="194" y="63">最低3折起</tspan>
                    </text>
                </g>
            </g>
            <g id="bar" transform="translate(0.000000, 587.000000)">
                <g id="矩形-copy-3">
                    <use fill="black" fill-opacity="1" filter="url(#filter-2)" xlink:href="#path-1"></use>
                    <use fill="#FFFFFF" fill-rule="evenodd" xlink:href="#path-1"></use>
                </g>
                <g id="Item-4" transform="translate(237.000000, 37.000000)" fill="#A8ADCA" fill-rule="nonzero">
                    <g id="shenghuo-2" transform="translate(16.000000, 0.000000)">
                        <path d="M15.7951037,5.86011746 C15.7951037,4.97223706 15.0443757,4.24933262 14.12114,4.24933262 L12.252839,4.24933262 L12.252839,3.73945541 C12.252839,1.67752269 10.5629024,0 8.48642075,0 C6.4099391,0 4.72053492,1.67752269 4.72053492,3.73945541 L4.72053492,4.24933262 L2.8815176,4.24933262 C1.95828191,4.24933262 1.2070215,4.97223706 1.20915122,5.81580352 L0,18.3892152 C0,19.2770956 0.751260405,20 1.67449608,20 L15.3276291,20 C16.2508648,20 17.0021252,19.2770956 16.9999955,18.3449012 L15.7951037,5.86011746 Z M11.7853644,8.03416977 C12.0435935,8.03416977 12.252839,7.82648159 12.252839,7.57020823 L12.252839,7.11158569 C12.3694414,7.22904431 12.441852,7.39028297 12.441852,7.56807261 C12.441852,7.92738922 12.1474176,8.21943407 11.784832,8.21943407 C11.4227788,8.21943407 11.1283443,7.92738922 11.1283443,7.56807261 C11.1283443,7.38974906 11.2012874,7.2285104 11.3178898,7.11105179 L11.3178898,7.57020823 C11.3178898,7.82648159 11.5271353,8.03416977 11.7853644,8.03416977 Z M5.65548409,3.73945541 C5.65548409,2.18900159 6.92533249,0.927923116 8.48642075,0.927923116 C10.0480414,0.927923116 11.3178898,2.18900159 11.3178898,3.73945541 L11.3178898,4.24933262 L5.65548409,4.24933262 L5.65548409,3.73945541 Z M5.18800951,8.03416977 C5.44623864,8.03416977 5.65548409,7.82648159 5.65548409,7.57020823 L5.65548409,7.11318741 C5.77208653,7.23117993 5.84502961,7.39188468 5.84502961,7.57020823 C5.84502961,7.92952482 5.55059515,8.22156967 5.18907438,8.22156967 C4.82648873,8.22156967 4.53205429,7.92952482 4.53205429,7.57020823 C4.53205429,7.39241859 4.60446493,7.23171383 4.72053492,7.1142552 L4.72053492,7.57020823 C4.72053492,7.82648159 4.92978039,8.03416977 5.18800951,8.03416977 Z M15.3276291,19.0720769 L1.67449608,19.0720769 C1.2666538,19.0720769 0.934949171,18.7656167 0.932819437,18.4329952 L2.14143824,5.86011746 C2.14143824,5.48371596 2.4736753,5.17725574 2.8815176,5.17725574 L4.72053492,5.17725574 L4.72053492,6.31019754 C4.20247938,6.50026696 3.83084242,6.99092364 3.83084242,7.57020823 C3.83084242,8.31340096 4.43994369,8.91777896 5.18907438,8.91777896 C5.93714021,8.91777896 6.54570905,8.31340096 6.54570905,7.57020823 C6.54570905,6.99038974 6.17353965,6.49973305 5.65548409,6.30966363 L5.65548409,5.17725574 L11.3178898,5.17725574 L11.3178898,6.30752803 C10.7998343,6.49759743 10.4276649,6.98825414 10.4276649,7.56807261 C10.4276649,8.31073145 11.0362337,8.91564334 11.784832,8.91564334 C12.5339626,8.91564334 13.1430639,8.31073145 13.1430639,7.56807261 C13.1430639,6.98878804 12.7708945,6.49813134 12.252839,6.30806194 L12.252839,5.17725574 L14.12114,5.17725574 C14.5284499,5.17725574 14.860687,5.48371596 14.8628167,5.90443139 L16.0677085,18.3892152 C16.0677085,18.7656167 15.7360038,19.0720769 15.3276291,19.0720769 Z" id="形状"></path>
                    </g>
                </g>
            </g>
        </g>
    </g>
</svg>